<svg id="Layer_3" enable-background="new 0 0 64 64" height="512" viewBox="0 0 64 64" width="512" xmlns="http://www.w3.org/2000/svg"><g><g><path d="m32 61c-15.991 0-29-13.009-29-29s13.009-29 29-29 29 13.009 29 29-13.009 29-29 29zm0-56c-14.888 0-27 12.112-27 27s12.112 27 27 27 27-12.112 27-27-12.112-27-27-27z" fill="#8892a0"/></g><circle cx="32" cy="32" fill="#c7e2fc" r="24"/><path d="m50 23.34c0-3.13-.58-6.122-1.63-8.883-4.288-4.003-10.041-6.457-16.37-6.457-13.255 0-24 10.745-24 24 0 4.501 1.242 8.711 3.398 12.311 3.915 2.545 8.584 4.029 13.602 4.029 13.807 0 25-11.193 25-25z" fill="#ebf7fe"/><g fill="#4d5d7a"><path d="m23 26h18v4h-18z"/><path d="m33 18 2-11v-5h-6v5l2 11z"/><path d="m31 46-2 11v5h6v-5l-2-11z"/><path d="m18 31-11-2h-5v6h5l11-2z"/><path d="m46 33 11 2h5v-6h-5l-11 2z"/></g><g><path d="m32 35h-4v-2h3v-3h2v4c0 .552-.448 1-1 1z" fill="#c1c8d1"/></g><g><path d="m38 23h2v3h-2z" fill="#8892a0"/></g><path d="m30 30-2 8h-5l2-8" fill="#8892a0"/></g></svg>