<svg height="512" viewBox="0 0 512 512" width="512" xmlns="http://www.w3.org/2000/svg"><g id="Filled_outline" data-name="Filled outline"><circle cx="160" cy="248" fill="#4d5e78" r="32"/><circle cx="352" cy="248" fill="#4d5e78" r="32"/><path d="m224 184h64v32h-64z" fill="#485870"/><path d="m160 216h192v112h-192z" fill="#e0e0de"/><path d="m256 464 160-48v-184l-137.012 41.1a32.256 32.256 0 0 0 -22.988 30.9z" fill="#dfcdb3"/><path d="m256 464-160-48v-184l137.012 41.1a32.256 32.256 0 0 1 22.988 30.9z" fill="#dfcdb3"/><path d="m232 304v184l-104.16-31.25-55.84-16.75v-184z" fill="#92563a"/><path d="m232 304h48v184h-48z" fill="#804a32"/><path d="m440 440-160 48v-184l160-48z" fill="#78462f"/><path d="m232 354.33v133.67l-104.16-31.25z" fill="#875036"/><path d="m24 344h64a16 16 0 0 1 16 16v32a16 16 0 0 1 -16 16h-48a16 16 0 0 1 -16-16v-48a0 0 0 0 1 0 0z" fill="#e0e0de"/><path d="m40 312h32a0 0 0 0 1 0 0v32a0 0 0 0 1 0 0h-48a0 0 0 0 1 0 0v-16a16 16 0 0 1 16-16z" fill="#cfcfcd"/><path d="m424 344h48a16 16 0 0 1 16 16v32a16 16 0 0 1 -16 16h-64a0 0 0 0 1 0 0v-48a16 16 0 0 1 16-16z" fill="#e0e0de" transform="matrix(-1 0 0 -1 896 752)"/><path d="m440 312h48a0 0 0 0 1 0 0v32a0 0 0 0 1 0 0h-32a16 16 0 0 1 -16-16v-16a0 0 0 0 1 0 0z" fill="#cfcfcd" transform="matrix(-1 0 0 -1 928 656)"/><path d="m352 80v104h-32v-32h-128v32h-32v-104a55.993 55.993 0 0 1 56-56h80a55.995 55.995 0 0 1 56 56z" fill="#e0e0de"/><path d="m352 80v104h-32v-32h-128v32h-32v-16.06c59.69-29.61 114.65-74.39 158.89-139.05a55.977 55.977 0 0 1 33.11 51.11z" fill="#dbdbd9"/><path d="m320 184h-128v-96a16 16 0 0 1 16-16h96a16 16 0 0 1 16 16z" fill="#4d5e78"/><path d="m304 72h-96a16 16 0 0 0 -16 16h128a16 16 0 0 0 -16-16z" fill="#485870"/><path d="m144 88h16a0 0 0 0 1 0 0v96a0 0 0 0 1 0 0h-16a16 16 0 0 1 -16-16v-64a16 16 0 0 1 16-16z" fill="#d6d6d4"/><path d="m352 88h16a16 16 0 0 1 16 16v64a16 16 0 0 1 -16 16h-16a0 0 0 0 1 0 0v-96a0 0 0 0 1 0 0z" fill="#d6d6d4"/><circle cx="216" cy="128" fill="#348fd9" r="24"/><circle cx="296" cy="128" fill="#348fd9" r="24"/><path d="m472 304h-24v-48a8 8 0 0 0 -10.3-7.663l-13.7 4.11v-20.447a8 8 0 0 0 -10.3-7.663l-25.1 7.528a40.1 40.1 0 0 0 -36.6-23.865h-56v-16h72a24.028 24.028 0 0 0 24-24v-64a24.028 24.028 0 0 0 -24-24h-8a64.072 64.072 0 0 0 -64-64h-80a64.072 64.072 0 0 0 -64 64h-8a24.028 24.028 0 0 0 -24 24v64a24.028 24.028 0 0 0 24 24h72v16h-56a40.1 40.1 0 0 0 -36.606 23.865l-25.094-7.528a8 8 0 0 0 -10.3 7.663v20.447l-13.7-4.11a8 8 0 0 0 -10.3 7.663v48h-24a24.028 24.028 0 0 0 -24 24v64a24.028 24.028 0 0 0 24 24h24v24a8 8 0 0 0 5.7 7.663l159.9 47.971.047.014.051.015a8 8 0 0 0 2.302.337h48a8 8 0 0 0 2.3-.339l.051-.015.047-.014 159.9-47.971a8 8 0 0 0 5.702-7.661v-24h24a24.028 24.028 0 0 0 24-24v-64a24.028 24.028 0 0 0 -24-24zm-320-128h-8a8.009 8.009 0 0 1 -8-8v-64a8.009 8.009 0 0 1 8-8h8zm208 49.384a24.088 24.088 0 0 1 13.061 11.144l-13.061 3.918zm0-129.384h8a8.009 8.009 0 0 1 8 8v64a8.009 8.009 0 0 1 -8 8h-8zm-176-8v88h-16v-96a48.055 48.055 0 0 1 48-48h80a48.055 48.055 0 0 1 48 48v96h-16v-88a24.028 24.028 0 0 0 -24-24h-96a24.028 24.028 0 0 0 -24 24zm16 88v-20.3a32 32 0 1 0 0-55.39v-12.31a8.009 8.009 0 0 1 8-8h96a8.009 8.009 0 0 1 8 8v12.305a32 32 0 1 0 0 55.39v20.305zm0-48a16 16 0 1 1 16 16 16.019 16.019 0 0 1 -16-16zm112 0a16 16 0 1 1 -16-16 16.019 16.019 0 0 1 16 16zm-32 64v16h-48v-16zm-112 32h176v21.246l-67.312 20.192a40.2 40.2 0 0 0 -20.688 14.381 40.2 40.2 0 0 0 -20.691-14.382l-67.309-20.191zm-16 1.384v15.062l-13.061-3.918a24.088 24.088 0 0 1 13.061-11.144zm-120 102.616a8.009 8.009 0 0 1 8-8h24v16h-32zm8 72a8.009 8.009 0 0 1 -8-8v-40h56a8.009 8.009 0 0 1 8 8v32a8.009 8.009 0 0 1 -8 8zm184 77.247-144-43.2v-18.047h8a24.028 24.028 0 0 0 24-24v-32a24.028 24.028 0 0 0 -24-24h-8v-69.248l144 43.2zm-120-220v-14.5l126.708 38.01a24.107 24.107 0 0 1 15.949 15.243h-13.481zm168 222.753h-32v-168h32zm6.824-184h-13.481a24.1 24.1 0 0 1 15.946-15.237l126.711-38.011v14.5zm153.176 138.048-144 43.2v-167.295l144-43.2v69.247h-8a24.028 24.028 0 0 0 -24 24v32a24.028 24.028 0 0 0 24 24h8zm48-42.048a8.009 8.009 0 0 1 -8 8h-48a8.009 8.009 0 0 1 -8-8v-32a8.009 8.009 0 0 1 8-8h56zm0-56h-32v-16h24a8.009 8.009 0 0 1 8 8z"/><path d="m248 240h16v16h-16z"/><path d="m216 240h16v16h-16z"/><path d="m280 240h16v16h-16z"/></g></svg>