<svg id="Layer_1" enable-background="new 0 0 256 256" height="512" viewBox="0 0 256 256" width="512" xmlns="http://www.w3.org/2000/svg"><g><g><g><g><g><path d="m245.866 121.565h-11.704c-3.202-54.702-45.949-100.573-102.159-105.974-62.117-5.968-117.51 39.713-123.479 101.831s39.712 117.511 101.83 123.479c3.667.353 6.925-2.334 7.277-6.001s-2.334-6.925-6.001-7.277c-54.796-5.265-95.093-54.129-89.828-108.925s54.129-95.093 108.925-89.828c49.313 4.739 86.876 44.789 90.063 92.695h-11.759c-1.762 0-2.762 2.018-1.694 3.42l18.417 24.172c.852 1.119 2.536 1.119 3.388 0l18.417-24.172c1.07-1.401.07-3.42-1.693-3.42z" fill="#6bdddd"/></g></g></g></g><g><g><g><g><g><path d="m169.513 215.501-10.429 8.983h13.626c1.567 0 2.284 1.465 2.284 2.944 0 1.474-.743 3.019-2.284 3.019h-18.269c-1.168 0-2.081-.368-2.741-1.104s-.99-1.628-.99-2.677c0-1.354.491-2.529 1.472-3.527l13.092-12.966c1.98-1.911 2.969-3.764 2.969-5.557 0-1.438-.533-2.622-1.599-3.553-1.066-.93-2.352-1.395-3.858-1.395-3.659 0-5.846 1.656-7.663 2.665-1.441.824-3.882-1.15-3.882-3.248 0-.947.473-1.7 1.421-2.259 5.171-3.071 10.405-3.68 14.273-2.765 5.414 1.281 8.64 5.433 8.64 10.225.003 3.992-2.019 7.73-6.062 11.215z" fill="#f9a7a7"/></g></g></g></g><g><g><g><g><path d="m192.075 226.564v-3.731h-12.941c-1.1 0-1.983-.3-2.651-.9-.669-.6-1.003-1.366-1.003-2.297 0-.66.178-1.336.533-2.029l11.621-20.223c1.387-2.402 3.46-3.604 6.217-3.604 4.229 0 5.76 2.069 5.76 5.912v17.508h2.664c1.791 0 3.02.923 3.02 2.817 0 1.736-.966 2.816-3.02 2.816h-2.689v3.654c0 2.504-1.309 4.111-3.781 4.111-2.184.001-3.73-1.329-3.73-4.034zm0-9.363v-16.874l-9.211 16.874z" fill="#f9a7a7"/></g></g></g></g></g><g><g><g><g><g><path d="m211.374 226.158v-28.14c0-2.566 1.893-4.263 4.06-4.263 2.159 0 4.085 1.691 4.085 4.263v10.2h14.666v-10.2c0-2.565 1.921-4.263 4.085-4.263 2.109 0 4.06 1.676 4.06 4.263v28.14c0 2.583-1.935 4.263-4.085 4.263-2.147 0-4.06-1.674-4.06-4.263v-11.444h-14.666v11.444c0 2.589-1.94 4.263-4.085 4.263-2.147 0-4.06-1.674-4.06-4.263z" fill="#f9a7a7"/></g></g></g></g></g><g><g><g><g><g><g><path d="m121.179 176.376c-31.74 0-57.47-25.73-57.47-57.47v-16.936c0-6.961 5.643-12.603 12.603-12.603h102.337v29.539c0 31.74-25.73 57.47-57.47 57.47z" fill="#4671c6"/></g></g></g></g><g><g><g><g><path d="m121.179 178.376c-32.792 0-59.47-26.678-59.47-59.47v-16.936c0-8.052 6.551-14.603 14.603-14.603h102.337c1.104 0 2 .896 2 2v29.539c0 32.792-26.678 59.47-59.47 59.47zm-44.867-87.009c-5.847 0-10.603 4.756-10.603 10.603v16.937c0 30.586 24.884 55.47 55.47 55.47 30.587 0 55.471-24.884 55.471-55.47v-27.54z" fill="#3762cc"/></g></g></g></g><g><g><g><g><path d="m170.127 128.249v-4.583c0-26.789-21.914-48.506-48.947-48.506-27.033 0-48.947 21.717-48.947 48.506v4.583c-8.499-.172-15.243 6.598-15.243 14.783 0 8.74 7.63 15.652 16.535 14.711 5.051 21.461 24.464 37.45 47.655 37.45 23.193 0 42.604-15.99 47.655-37.45 8.894.94 16.535-5.959 16.535-14.711-.001-8.188-6.749-14.955-15.243-14.783z" fill="#f9cfcf"/></g></g></g></g><g><g><g><g><path d="m121.173 172.076c-2.001 0-3.747-.235-5.336-.72-2.64-.803-4.953-2.153-6.691-3.906-.778-.784-.772-2.051.012-2.828.785-.777 2.052-.772 2.828.012 1.273 1.283 3.008 2.285 5.017 2.896 1.207.367 2.57.546 4.171.546s2.965-.179 4.171-.546c2.009-.611 3.743-1.612 5.017-2.896.776-.785 2.044-.79 2.828-.012.784.777.79 2.044.012 2.828-1.738 1.753-4.052 3.104-6.691 3.906-1.592.485-3.337.72-5.338.72z" fill="#3762cc"/></g></g></g></g><g><g><g><g><path d="m146.591 153.112c-3.417 0-6.187-2.77-6.187-6.187v-6.599c0-3.417 2.77-6.187 6.187-6.187 3.417 0 6.187 2.77 6.187 6.187v6.599c0 3.417-2.77 6.187-6.187 6.187z" fill="#3762cc"/></g></g></g></g><g><g><g><g><path d="m95.755 153.112c-3.417 0-6.187-2.77-6.187-6.187v-6.599c0-3.417 2.77-6.187 6.187-6.187 3.417 0 6.187 2.77 6.187 6.187v6.599c0 3.417-2.77 6.187-6.187 6.187z" fill="#3762cc"/></g></g></g></g><g><g><g><g><path d="m121.179 197.193c-23.233 0-43.225-15.282-49.19-37.366-.019 0-.036 0-.054 0-4.191 0-8.262-1.539-11.387-4.351-3.532-3.179-5.559-7.715-5.559-12.444 0-4.527 1.788-8.773 5.036-11.956 2.786-2.729 6.353-4.378 10.206-4.75v-2.66c0-27.849 22.854-50.506 50.947-50.506s50.948 22.657 50.948 50.506v2.66c3.854.372 7.42 2.021 10.206 4.751 3.248 3.183 5.036 7.428 5.036 11.955 0 4.729-2.025 9.266-5.558 12.443-3.125 2.813-7.196 4.352-11.388 4.352-.018 0-.035 0-.054 0-5.963 22.087-25.954 37.366-49.189 37.366zm-47.653-41.45c.917 0 1.73.631 1.945 1.542 4.977 21.143 23.771 35.908 45.707 35.908s40.731-14.766 45.709-35.908c.23-.981 1.155-1.626 2.156-1.531 3.69.395 7.362-.795 10.092-3.251 2.69-2.421 4.233-5.873 4.233-9.471 0-3.443-1.362-6.675-3.836-9.099-2.497-2.447-5.787-3.75-9.366-3.685-.501-.023-1.056-.196-1.439-.571-.385-.376-.601-.892-.601-1.429v-4.583c0-25.644-21.061-46.506-46.948-46.506s-46.947 20.862-46.947 46.506v4.583c0 .537-.216 1.053-.601 1.429-.384.375-.924.552-1.439.571-3.567-.068-6.869 1.236-9.366 3.685-2.474 2.424-3.836 5.655-3.836 9.099 0 3.598 1.544 7.05 4.234 9.472 2.728 2.454 6.399 3.638 10.091 3.25.071-.007.142-.011.212-.011z" fill="#3762cc"/></g></g></g></g><g><g><g><g><path d="m178.649 116.39h-76.455c-15.349 0-27.791-12.443-27.791-27.791 0-15.349 12.443-27.791 27.791-27.791h48.664c15.349 0 27.791 12.443 27.791 27.791z" fill="#4671c6"/></g></g></g></g><g><g><g><g><path d="m178.649 118.391h-76.456c-16.427 0-29.791-13.364-29.791-29.792 0-16.427 13.364-29.791 29.791-29.791h48.664c16.428 0 29.792 13.364 29.792 29.791v27.792c0 1.104-.895 2-2 2zm-76.456-55.583c-14.222 0-25.791 11.569-25.791 25.791s11.569 25.792 25.791 25.792h74.456v-25.792c0-14.222-11.57-25.791-25.792-25.791z" fill="#3762cc"/></g></g></g></g></g><g><g><g><g><g><path d="m178.785 141.422c-2.678 0-4.848-2.171-4.848-4.848v-38.128c0-17.507-14.243-31.749-31.75-31.749h-42.028c-17.507 0-31.749 14.242-31.749 31.749v38.127c0 2.678-2.171 4.848-4.848 4.848s-4.848-2.171-4.848-4.848v-38.127c-.001-22.853 18.591-41.446 41.445-41.446h42.028c22.854 0 41.447 18.593 41.447 41.446v38.127c-.001 2.678-2.171 4.849-4.849 4.849z" fill="#e0ebfc"/></g></g></g></g></g><g><g><g><g><path d="m172.478 184.376h-53.299c-1.104 0-2-.896-2-2s.896-2 2-2h53.299c3.478 0 6.307-2.829 6.307-6.307v-16.142c0-1.104.896-2 2-2s2 .896 2 2v16.142c-.001 5.683-4.624 10.307-10.307 10.307z" fill="#3762cc"/></g></g></g></g><g><g><g><g><path d="m126.63 188.865h-10.902c-3.584 0-6.489-2.905-6.489-6.489 0-3.584 2.905-6.489 6.489-6.489h10.902c3.584 0 6.489 2.905 6.489 6.489 0 3.584-2.905 6.489-6.489 6.489z" fill="#a4c9ff"/></g></g></g></g><g><g><g><g><g><path d="m178.785 143.422c-3.776 0-6.849-3.072-6.849-6.849v-38.127c0-16.403-13.346-29.749-29.75-29.749h-42.028c-16.403 0-29.749 13.346-29.749 29.749v38.127c0 3.776-3.072 6.849-6.849 6.849-3.775 0-6.848-3.072-6.848-6.849v-38.127c.001-23.956 19.49-43.446 43.446-43.446h42.028c23.957 0 43.447 19.49 43.447 43.446v38.127c.001 3.777-3.071 6.849-6.848 6.849zm-78.627-78.725h42.028c18.609 0 33.75 15.14 33.75 33.749v38.127c0 1.57 1.278 2.849 2.849 2.849s2.849-1.278 2.849-2.849v-38.127c0-21.751-17.696-39.446-39.447-39.446h-42.028c-21.75 0-39.445 17.695-39.445 39.446v38.127c0 1.57 1.277 2.849 2.848 2.849s2.849-1.278 2.849-2.849v-38.127c-.002-18.609 15.138-33.749 33.747-33.749z" fill="#3762cc"/></g></g></g></g></g><g><g><g><g><path d="m184.947 166.059h-11.393c-2.867 0-5.191-2.324-5.191-5.191v-45.25c0-2.867 2.324-5.191 5.191-5.191h11.393c6.308 0 11.421 5.113 11.421 11.421v32.791c0 6.307-5.113 11.42-11.421 11.42z" fill="#a4c9ff"/></g></g></g></g><g><g><g><g><path d="m68.792 166.059h-11.393c-6.308 0-11.421-5.113-11.421-11.421v-32.791c0-6.308 5.113-11.421 11.421-11.421h11.393c2.867 0 5.191 2.324 5.191 5.191v45.25c.001 2.868-2.324 5.192-5.191 5.192z" fill="#a4c9ff"/></g></g></g></g><g><g><g><g><path d="m184.947 168.059h-11.394c-3.966 0-7.191-3.226-7.191-7.191v-45.25c0-3.966 3.226-7.191 7.191-7.191h11.394c7.4 0 13.421 6.021 13.421 13.421v32.791c0 7.399-6.02 13.42-13.421 13.42zm-11.393-55.633c-1.76 0-3.191 1.432-3.191 3.191v45.25c0 1.76 1.432 3.191 3.191 3.191h11.394c5.194 0 9.421-4.227 9.421-9.421v-32.791c0-5.194-4.227-9.421-9.421-9.421h-11.394z" fill="#3762cc"/></g></g></g></g><g><g><g><g><path d="m68.792 168.059h-11.393c-7.4 0-13.422-6.021-13.422-13.421v-32.791c0-7.4 6.021-13.421 13.422-13.421h11.393c3.966 0 7.191 3.226 7.191 7.191v45.25c0 3.966-3.225 7.192-7.191 7.192zm-11.393-55.633c-5.195 0-9.422 4.227-9.422 9.421v32.791c0 5.194 4.227 9.421 9.422 9.421h11.393c1.76 0 3.191-1.432 3.191-3.191v-45.25c0-1.76-1.432-3.191-3.191-3.191h-11.393z" fill="#3762cc"/></g></g></g></g><g><g><g><g><path d="m126.63 190.865h-10.901c-4.681 0-8.489-3.809-8.489-8.489s3.809-8.489 8.489-8.489h10.901c4.681 0 8.489 3.809 8.489 8.489s-3.808 8.489-8.489 8.489zm-10.901-12.978c-2.476 0-4.489 2.014-4.489 4.489s2.014 4.489 4.489 4.489h10.901c2.476 0 4.489-2.014 4.489-4.489s-2.014-4.489-4.489-4.489z" fill="#3762cc"/></g></g></g></g></g></g></svg>